<?xml version="1.0" encoding="UTF-8" standalone="no"?>
<svg
   version="1.1"
   id="svg2"
   xml:space="preserve"
   width="262.07266"
   height="112.082"
   viewBox="0 0 262.07266 112.082"
   sodipodi:docname="logo originale_r_cerchiata_con_sito_su_sfondo_bianco.svg"
   inkscape:version="1.2.2 (732a01da63, 2022-12-09)"
   inkscape:export-filename="C:\Users\Daniele\Desktop\1.png"
   inkscape:export-xdpi="96"
   inkscape:export-ydpi="96"
   xmlns:inkscape="http://www.inkscape.org/namespaces/inkscape"
   xmlns:sodipodi="http://sodipodi.sourceforge.net/DTD/sodipodi-0.dtd"
   xmlns="http://www.w3.org/2000/svg"
   xmlns:svg="http://www.w3.org/2000/svg"
   xmlns:rdf="http://www.w3.org/1999/02/22-rdf-syntax-ns#"
   xmlns:cc="http://creativecommons.org/ns#"
   xmlns:dc="http://purl.org/dc/elements/1.1/"><metadata
     id="metadata8"><rdf:RDF><cc:Work
         rdf:about=""><dc:format>image/svg+xml</dc:format><dc:type
           rdf:resource="http://purl.org/dc/dcmitype/StillImage" /></cc:Work></rdf:RDF></metadata><defs
     id="defs6"><rect
       x="150.26019"
       y="356.31552"
       width="414.32037"
       height="37.012623"
       id="rect392" /><rect
       x="149.15533"
       y="357.97281"
       width="422.60678"
       height="24.859222"
       id="rect386" /><clipPath
       clipPathUnits="userSpaceOnUse"
       id="clipPath22"><path
         d="M 0,595.28 H 841.89 V 0 H 0 Z"
         id="path20"
         inkscape:connector-curvature="0" /></clipPath></defs><sodipodi:namedview
     pagecolor="#ffffff"
     bordercolor="#000000"
     borderopacity="1"
     objecttolerance="10"
     gridtolerance="10"
     guidetolerance="10"
     inkscape:pageopacity="0"
     inkscape:pageshadow="2"
     inkscape:window-width="1920"
     inkscape:window-height="1017"
     id="namedview4"
     showgrid="false"
     inkscape:zoom="3.6203868"
     inkscape:cx="187.27281"
     inkscape:cy="64.633978"
     inkscape:window-x="-8"
     inkscape:window-y="-8"
     inkscape:window-maximized="1"
     inkscape:current-layer="g10"
     inkscape:document-rotation="0"
     fit-margin-top="0"
     fit-margin-left="0"
     fit-margin-right="0"
     fit-margin-bottom="0"
     borderlayer="true"
     lock-margins="false"
     inkscape:showpageshadow="2"
     inkscape:pagecheckerboard="0"
     inkscape:deskcolor="#d1d1d1" /><g
     id="g10"
     inkscape:groupmode="layer"
     inkscape:label="logo originale_r_cerchiata"
     transform="matrix(1.3333333,0,0,-1.3333333,908.21874,866.33425)"><g
   id="g548"><g
     id="g116"
     transform="matrix(0.41510034,0,0,0.41510034,-601.96945,628.40223)"><path
       d="m 0,0 c -1.889,-5.669 1.232,-12.322 6.819,-19.387 7.311,-9.036 8.379,-21.442 6.161,-31.709 -3.615,-16.842 -20.538,-24.892 -34.667,-19.223 -17.087,6.817 -15.772,32.037 -2.218,42.389 9.694,7.31 17.826,-7.066 17.333,-7.23 -19.634,-4.846 -25.138,-25.384 -12.157,-31.463 8.952,-4.19 19.55,0.247 22.589,11.748 1.891,7.311 -1.642,18.565 -9.61,28.423 -6.901,8.708 -8.543,19.47 -3.697,27.602 5.258,8.954 18.976,11.009 25.631,7.968 12.896,-5.996 10.68,-21.522 3.531,-26.369 -9.529,-6.326 -14.704,8.132 -14.704,8.132 12.815,3.04 14.787,11.83 8.461,14.787 C 7.805,8.38 1.971,5.586 0,0"
       style="fill:#0c3183;fill-opacity:1;fill-rule:nonzero;stroke:none"
       id="path118"
       inkscape:connector-curvature="0" /></g><g
     id="g120"
     transform="matrix(0.41510034,0,0,0.41510034,-585.50188,619.60426)"><path
       d="m 0,0 c -3.697,-0.903 -7.311,-7.229 -8.543,-15.444 -1.151,-7.229 0.492,-12.897 5.832,-13.226 5.01,-0.329 9.282,4.847 10.515,13.063 0.329,2.053 0.329,4.189 0.082,6.078 -0.574,0 -1.233,0.082 -1.889,0.247 C 0.904,-8.214 -1.232,-3.696 0,0 m 1.807,2.794 c 0.329,0.246 0.575,0.493 0.904,0.657 3.696,2.464 8.708,-0.329 10.351,-7.887 4.024,-0.246 8.295,-0.164 12.732,1.972 0,0 0.083,-0.082 0.165,-0.082 1.396,-0.575 1.56,-2.383 -0.986,-3.451 -2.874,-1.314 -7.064,-2.793 -11.336,-3.368 0,-1.889 -0.082,-3.943 -0.411,-6.161 -1.479,-9.775 -8.626,-23.823 -21.442,-22.427 -10.186,0.904 -15.443,8.79 -13.882,20.62 C -20.538,-5.175 -9.037,3.615 1.068,2.875 1.313,2.794 1.561,2.794 1.807,2.794"
       style="fill:#0c3183;fill-opacity:1;fill-rule:nonzero;stroke:none"
       id="path122"
       inkscape:connector-curvature="0" /></g><g
     id="g124"
     transform="matrix(0.41510034,0,0,0.41510034,-572.75133,619.7747)"><path
       d="M 0,0 C 8.544,15.28 12.488,28.096 10.188,30.067 7.395,32.449 3.122,16.102 0,0 m -1.889,-9.94 c -1.724,-10.022 -2.217,-20.62 1.562,-22.016 2.464,-0.985 5.914,4.436 7.968,10.351 h 0.165 c 1.479,0.575 2.792,-0.575 1.723,-3.204 -3.039,-7.804 -9.611,-14.293 -15.114,-11.911 -6.819,3.039 -10.187,13.226 -8.708,26.698 C -11.745,11.83 3.042,45.347 13.802,41.403 21.113,38.775 13.967,14.87 -1.889,-9.94"
       style="fill:#0c3183;fill-opacity:1;fill-rule:nonzero;stroke:none"
       id="path126"
       inkscape:connector-curvature="0" /></g><g
     id="g128"
     transform="matrix(0.41510034,0,0,0.41510034,-566.20457,606.78297)"><path
       d="m 0,0 c 2.301,-0.658 4.684,4.436 7.394,14.868 -0.082,3.697 0.164,7.723 0.905,11.994 1.889,11.912 12.156,13.062 16.921,8.298 0,0 -3.861,-11.994 -5.503,-21.031 -1.48,-7.311 -2.054,-14.622 0.738,-14.869 2.629,-0.246 5.34,4.518 7.477,10.432 h 0.082 C 29.492,10.186 30.806,9.118 29.82,6.489 26.205,-2.629 20.044,-7.558 14.704,-5.422 11.174,-4.107 8.379,1.724 7.558,10.186 V 8.79 C 6.08,3.614 2.794,-6.572 -4.189,-5.75 c -6.818,0.821 -9.857,9.364 -6.983,20.537 3.204,12.486 1.807,15.773 1.807,15.773 C 1.479,34.174 5.586,28.341 2.136,16.018 -0.574,6.243 -2.381,0.656 0,0"
       style="fill:#0c3183;fill-opacity:1;fill-rule:nonzero;stroke:none"
       id="path130"
       inkscape:connector-curvature="0" /></g><g
     id="g132"
     transform="matrix(0.41510034,0,0,0.41510034,-549.0545,605.89624)"><path
       d="m 0,0 c -4.189,-5.175 -7.721,-5.094 -8.788,-4.272 -3.863,3.122 -2.548,11.911 2.71,14.294 2.218,0.986 4.848,0.657 7.557,-0.329 2.055,3.779 4.026,7.886 5.833,11.912 C 5.834,21.113 4.355,20.701 2.959,20.538 H 2.301 c -3.614,-0.33 -6.407,0.163 -8.462,1.231 -1.315,-4.601 -3.368,-9.611 -5.831,-14.13 -1.233,-2.464 -3.204,-2.135 -3.698,-0.575 v 0.083 c 2.711,4.436 4.93,11.582 5.917,17.416 -3.288,4.106 -3.04,10.021 -1.48,12.076 0.164,0.328 0.575,0.328 0.575,0.328 0,0 5.094,-3.122 15.526,-2.958 2.957,0 5.997,0 8.626,0.165 4.6,6.408 12.158,7.065 10.678,1.396 C 23.331,32.449 19.225,28.094 13.966,24.891 11.666,20.044 8.462,13.637 5.34,8.132 c 4.025,-1.971 7.888,-4.518 10.433,-4.6 2.959,-0.164 6.081,3.122 8.134,8.955 h 0.162 c 1.48,0.575 2.795,-0.575 1.727,-3.122 C 22.346,0.739 16.02,-7.886 9.284,-6.243 5.916,-5.34 2.63,-2.546 0,0"
       style="fill:#0c3183;fill-opacity:1;fill-rule:nonzero;stroke:none"
       id="path134"
       inkscape:connector-curvature="0" /></g><g
     id="g136"
     transform="matrix(0.41510034,0,0,0.41510034,-533.30135,623.01444)"><path
       d="m 0,0 c -4.519,0.904 -6.819,5.422 -6.078,8.79 1.067,4.929 6.159,7.476 11.253,5.833 C 10.351,12.979 11.747,8.05 9.858,4.354 8.296,1.232 4.106,-0.739 0,0 m 5.092,-29.41 c 1.479,0.575 2.793,-0.574 1.807,-3.204 -3.122,-7.803 -8.788,-14.293 -15.197,-12.651 -6.161,1.643 -9.775,12.898 -6.654,26.042 2.384,10.186 11.748,15.116 18.564,10.351 0,0 -3.283,-3.533 -6.242,-15.443 -2.054,-8.299 -3.039,-15.692 -0.574,-16.185 2.627,-0.575 6.078,5.176 8.215,11.09 z"
       style="fill:#0c3183;fill-opacity:1;fill-rule:nonzero;stroke:none"
       id="path138"
       inkscape:connector-curvature="0" /></g><g
     id="g140"
     transform="matrix(0.41510034,0,0,0.41510034,-522.69766,619.60426)"><path
       d="m 0,0 c -3.696,-0.903 -7.312,-7.229 -8.544,-15.444 -1.15,-7.229 0.494,-12.897 5.834,-13.226 5.011,-0.329 9.281,4.847 10.515,13.063 0.328,2.053 0.328,4.189 0.083,6.078 -0.576,0 -1.234,0.082 -1.892,0.247 C 0.902,-8.214 -1.232,-3.696 0,0 m 1.807,2.794 c 0.329,0.246 0.575,0.493 0.903,0.657 3.698,2.464 8.709,-0.329 10.352,-7.887 4.026,-0.246 8.297,-0.164 12.734,1.972 0,0 0.08,-0.082 0.162,-0.082 1.397,-0.575 1.563,-2.383 -0.986,-3.451 -2.873,-1.314 -7.064,-2.793 -11.335,-3.368 0,-1.889 -0.083,-3.943 -0.412,-6.161 -1.477,-9.775 -8.624,-23.823 -21.44,-22.427 -10.185,0.904 -15.443,8.79 -13.884,20.62 C -20.537,-5.175 -9.036,3.615 1.068,2.875 1.314,2.794 1.562,2.794 1.807,2.794"
       style="fill:#0c3183;fill-opacity:1;fill-rule:nonzero;stroke:none"
       id="path142"
       inkscape:connector-curvature="0" /></g><g
     id="g144"
     transform="matrix(0.41510034,0,0,0.41510034,-513.79936,620.59316)"><path
       d="M 0,0 C 5.422,3.533 13.144,-1.807 13.227,-1.972 13.144,-2.054 11.5,-3.614 9.94,-12.979 15.772,-2.218 20.455,2.053 25.631,0.247 c 3.778,-1.315 5.667,-7.886 2.874,-19.387 -3.122,-13.144 -5.666,-20.702 -3.695,-21.441 1.806,-0.657 4.024,1.314 5.667,6.079 0,0 0.083,0.082 0.165,0.082 1.479,0.575 2.793,-0.575 1.806,-3.122 -3.039,-7.723 -8.707,-10.515 -13.389,-8.461 -4.602,1.971 -7.641,10.105 -3.615,25.22 2.546,9.775 3.861,13.144 2.217,13.801 -1.559,0.41 -3.942,-3.451 -8.953,-15.609 -2.301,-15.443 -7.147,-17.744 -13.146,-15.443 0,0 -0.244,1.067 -0.244,3.86 C -4.765,-15.197 -5.176,-3.45 0,0"
       style="fill:#0c3183;fill-opacity:1;fill-rule:nonzero;stroke:none"
       id="path146"
       inkscape:connector-curvature="0" /></g><g
     id="g148"
     transform="matrix(0.41510034,0,0,0.41510034,-493.61428,620.52525)"><path
       d="m 0,0 c -4.519,0.903 -6.819,5.421 -6.081,8.79 1.067,4.929 6.163,7.476 11.256,5.832 C 10.351,12.897 11.747,8.05 9.855,4.353 8.296,1.232 4.106,-0.74 0,0 m 9.691,-41.568 c 1.481,0.575 2.794,-0.492 1.81,-3.121 -1.646,-4.026 -7.477,-9.694 -15.199,-7.065 -9.775,3.45 -13.964,18.73 -9.365,38.528 2.465,10.104 11.254,13.472 17.579,8.954 0,0 -3.449,-5.75 -5.257,-14.047 -3.284,-14.869 -4.353,-24.563 1.479,-27.274 3.944,-1.89 7.229,-0.246 8.791,4.025 z"
       style="fill:#0c3183;fill-opacity:1;fill-rule:nonzero;stroke:none"
       id="path150"
       inkscape:connector-curvature="0" /></g><g
     id="g152"
     transform="matrix(0.41510034,0,0,0.41510034,-657.08963,595.7516)"><path
       d="m 0,0 c 29.506,9.755 93.999,-9.522 107.875,-4.935 3.359,1.11 5.229,3.557 4.453,4.868 l -0.063,0.108 C 89.648,-3.648 28.222,22.256 -8.979,15.179 -47.411,7.825 -60.396,-17.748 -48.683,-34.892 c 7.319,-10.896 20.229,-17.074 34.503,-15.225 10.528,1.39 19.094,10.227 14.605,18.405 -1.344,0.208 -2.543,0.465 -3.873,0.941 C -16.848,-26.717 -22.638,-7.484 0,0 M -9.019,24.693 C 27.678,31.735 98.736,-2.474 115.53,3.08 c 3.359,1.109 5.291,3.447 4.455,4.866 -0.773,1.311 1.563,2.084 2.209,0.991 1.357,-2.292 -1.18,-6.265 -7.171,-8.245 l -0.292,-0.097 c 0.852,-2.326 -1.67,-6.034 -7.367,-7.916 -16.358,-5.41 -78.531,7.586 -106.866,-1.782 -15.335,-5.07 -11.505,-16.859 -0.616,-19.918 13.903,-4.017 23.449,6.708 16.82,14.961 -1.003,1.106 1.528,1.55 2.32,0.506 6.758,-8.469 -2.286,-19.161 -15.824,-18.416 4.356,-9.134 -5.752,-18.612 -17.514,-20.281 -15.296,-2.186 -30.2,4.115 -37.712,15.338 -14.719,21.635 -2.888,52.7 43.009,61.606"
       style="fill:#0c3183;fill-opacity:1;fill-rule:nonzero;stroke:none"
       id="path154"
       inkscape:connector-curvature="0" /></g><g
     id="g156"
     transform="matrix(0.41510034,0,0,0.41510034,-655.35729,623.18085)"><path
       d="M 0,0 C 3.517,14.954 18.493,24.225 33.445,20.708 48.4,17.189 57.67,2.214 54.152,-12.739 50.637,-27.692 35.662,-36.963 20.707,-33.446 5.754,-29.929 -3.517,-14.953 0,0 m -12.981,-6.445 c -1.295,-0.586 -2.338,-0.897 -3.915,-1.167 -0.617,-0.107 -3.502,-0.216 -5.883,-0.223 -4.284,-0.015 -8.138,-0.628 -11.167,-1.778 -2.332,-0.884 -4.727,-2.604 -6.718,-4.825 -2.193,-2.445 -2.867,-3.367 -2.431,-3.318 0.073,0.009 1.298,0.675 2.723,1.481 3.464,1.963 3.685,2.076 4.852,2.469 1.788,0.604 3.62,0.85 5.895,0.794 0.964,-0.024 1.777,-0.168 4.132,-0.726 2.964,-0.704 3.562,-0.901 9.255,-3.065 2.045,-0.778 5.259,-1.606 6.381,-1.644 1.464,-0.05 2.266,-0.118 2.315,-0.198 0.079,-0.128 -0.613,-1.143 -1.452,-2.133 -2.115,-2.491 -3.747,-3.556 -8.848,-5.772 -5.834,-2.534 -9.123,-4.722 -11.598,-7.718 -1.289,-1.557 -2.059,-3.012 -3.079,-5.813 -0.167,-0.459 -0.31,-0.867 -0.438,-1.245 0.726,0.318 1.467,0.627 2.221,0.929 0.266,0.339 0.558,0.715 0.794,1.018 2.264,2.93 5.185,4.75 9.192,5.731 2.434,0.596 4.535,0.804 10.115,1.001 5.093,0.181 6.732,0.422 9.308,1.37 0.59,0.216 1.11,0.384 1.156,0.373 0.142,-0.032 -0.404,-2.149 -0.868,-3.468 16.122,-0.19 35.844,-5.066 54.428,-10.302 -0.025,0.598 -0.047,1.216 -0.068,1.877 -0.039,1.334 -0.114,2.776 -0.164,3.203 -0.146,1.225 -0.713,3.632 -1.125,4.759 -0.207,0.566 -0.357,1.111 -0.33,1.212 0.035,0.153 0.333,0.1 1.778,-0.314 3.238,-0.927 5.198,-2.065 7.631,-4.423 0.432,-0.419 1.325,-1.287 1.985,-1.929 1.48,-1.444 1.951,-1.871 2.977,-2.712 0.444,-0.362 0.89,-0.735 0.996,-0.829 0.544,-0.486 3.057,-2.138 4.051,-2.664 1.762,-0.931 2.88,-1.337 4.672,-1.694 2.115,-0.42 3.514,-0.469 6.426,-0.226 2.228,0.186 2.681,0.283 2.527,0.537 -0.037,0.058 -1.596,0.506 -3.46,0.996 -3.587,0.942 -4.096,1.132 -5.873,2.211 -1.824,1.107 -3.154,2.375 -4.836,4.608 -1.36,1.805 -3.186,5.291 -5.243,9.988 -1.403,3.212 -2.684,5.268 -4.364,7.013 -0.374,0.39 -0.697,0.79 -0.716,0.888 -0.036,0.21 0.507,0.325 2.286,0.479 2.558,0.223 3.542,0.144 5.82,-0.468 1.141,-0.305 2.835,-0.868 3.767,-1.246 5.098,-2.078 7.803,-2.872 10.682,-3.141 4.475,-0.416 7.128,0.211 12.232,2.893 1.225,0.641 1.585,0.885 1.412,0.963 -0.21,0.094 -1.535,-0.03 -2.703,-0.252 -0.252,-0.045 -0.49,-0.076 -0.539,-0.065 -0.093,0.022 -2.177,-0.25 -2.86,-0.373 -1.443,-0.263 -3.86,-0.04 -5.797,0.533 -1.424,0.42 -4.221,1.747 -5.133,2.433 -0.216,0.162 -0.741,0.548 -1.16,0.854 -0.423,0.306 -1.253,0.966 -1.854,1.466 -1.114,0.923 -1.86,1.601 -4.233,3.83 -0.423,0.397 -1.057,0.992 -1.41,1.323 -0.586,0.55 -2.271,1.947 -2.844,2.355 -0.596,0.427 -1.806,1.122 -2.863,1.645 -0.636,0.314 -1.194,0.624 -1.239,0.688 -0.132,0.192 2.803,1.833 4.172,2.329 2.326,0.846 3.237,0.967 7.821,1.039 2.982,0.05 4.996,0.134 5.477,0.233 0.159,0.033 0.639,0.107 1.068,0.162 0.787,0.102 0.999,0.142 2.442,0.439 3.652,0.758 6.867,2.43 8.956,4.667 2.014,2.155 3.699,4.076 3.744,4.276 0.086,0.36 -0.58,0.112 -2.02,-0.748 C 91.499,1.762 90.111,1.099 88.241,0.693 84.982,-0.019 81.06,0.329 77.066,1.682 74.78,2.457 72.294,3.361 70.917,3.917 70.226,4.196 68.613,4.704 67.331,5.045 65.348,5.571 64.755,5.679 63.376,5.764 62.469,5.818 61.715,5.92 61.667,5.998 c -0.05,0.079 -0.005,0.234 0.103,0.353 0.103,0.117 0.469,0.579 0.812,1.028 1.116,1.471 2.62,2.904 4.116,3.934 0.668,0.458 2.772,1.454 6.367,3.013 5.545,2.401 9.643,5.477 11.613,8.712 0.97,1.594 1.952,3.955 2.747,6.616 0.321,1.061 0.364,1.327 0.217,1.316 -0.19,-0.012 -1.055,-1.023 -2.33,-2.725 -2.301,-3.062 -3.909,-4.568 -6.053,-5.672 -1.6,-0.823 -3.297,-1.445 -4.702,-1.721 C 74.2,20.78 73.57,20.655 73.154,20.572 72.74,20.488 72.227,20.42 72.016,20.42 71.808,20.417 71.567,20.388 71.48,20.353 71.165,20.219 67.942,20.03 63.81,19.905 62.512,19.866 61.046,19.796 60.549,19.751 59.43,19.654 56.84,19.046 55.433,18.549 54.851,18.346 54.322,18.23 54.256,18.296 c -0.147,0.149 0.517,2.372 1.208,4.037 1.033,2.497 1.957,3.716 5.668,7.472 5.237,5.3 7.913,10.234 8.117,14.947 0.081,1.812 -0.069,4.718 -0.333,6.559 l -0.059,0.413 -0.195,-0.287 c -0.106,-0.158 -0.556,-1.693 -1.002,-3.41 -0.799,-3.086 -1.296,-4.475 -2.022,-5.66 -1.702,-2.769 -3.446,-4.413 -6.906,-6.507 -1.999,-1.21 -4.19,-2.294 -8.85,-4.376 -2.115,-0.947 -4.195,-2.257 -5.78,-3.642 -1.199,-1.048 -1.23,-1.063 -1.381,-0.751 -0.223,0.465 -0.448,3.257 -0.385,4.823 0.057,1.455 0.397,3.098 0.933,4.501 0.185,0.486 0.501,1.309 0.697,1.83 0.198,0.522 0.744,1.907 1.212,3.079 0.677,1.699 0.965,2.626 1.429,4.598 1.206,5.13 1.047,8.526 -0.58,12.341 -0.866,2.029 -2.596,5.166 -2.671,4.845 -0.037,-0.158 0.414,-3.899 0.582,-4.836 0.155,-0.856 0.284,-3.15 0.225,-3.992 -0.035,-0.473 -0.221,-1.546 -0.416,-2.379 -0.884,-3.772 -2.972,-7.03 -7.726,-12.062 -0.38,-0.402 -0.874,-0.936 -1.1,-1.187 -0.227,-0.248 -0.778,-0.837 -1.233,-1.307 -1.943,-2.02 -3.021,-3.617 -4.485,-6.668 -0.092,-0.187 -0.213,-0.328 -0.273,-0.315 -0.215,0.052 -1.771,2.846 -2.205,3.967 -0.902,2.327 -1.021,3.254 -1.138,8.792 -0.086,3.956 -0.28,5.885 -0.854,8.385 -0.464,2.037 -0.656,2.639 -1.297,4.077 -1.083,2.426 -2.693,4.357 -5.777,6.928 -0.963,0.803 -1.814,1.475 -1.888,1.493 -0.287,0.069 0.074,-0.689 1.444,-3.023 1.836,-3.127 2.315,-4.175 2.733,-5.976 0.684,-2.948 0.658,-4.467 -0.138,-8.186 -0.625,-2.921 -1.151,-4.533 -3.344,-10.291 -0.862,-2.266 -1.303,-4.053 -1.445,-5.863 -0.205,-2.575 -0.189,-2.491 -0.399,-2.441 -0.305,0.072 -2.675,2.062 -3.506,2.942 -1.664,1.765 -2.371,3.016 -4.408,7.795 -1.886,4.428 -3.734,7.45 -5.999,9.803 -2.026,2.108 -3.735,3.153 -7.285,4.455 -2.883,1.057 -4.332,1.369 -3.661,0.789 0.3,-0.26 1.888,-1.498 3.134,-2.443 0.674,-0.514 1.534,-1.19 1.911,-1.509 2.452,-2.058 4.489,-5.726 5.128,-9.227 0.087,-0.474 0.21,-1.122 0.274,-1.441 0.196,-0.978 0.47,-4.781 0.564,-7.836 0.049,-1.602 0.14,-3.512 0.202,-4.245 0.125,-1.499 0.675,-3.94 1.194,-5.304 0.518,-1.361 0.535,-1.353 -1.384,-0.8 -1.75,0.501 -3.812,1.38 -4.828,2.059 -0.748,0.501 -2.598,2.07 -3.596,3.05 -0.397,0.393 -0.747,0.719 -0.775,0.726 -0.026,0.007 -0.338,0.312 -0.688,0.678 -0.928,0.972 -2.808,2.613 -4.547,3.972 -0.864,0.675 -3.532,2.248 -4.714,2.777 -2.878,1.292 -5.714,1.625 -10.302,1.21 -1.081,-0.098 -1.978,-0.236 -1.995,-0.306 -0.054,-0.228 0.655,-0.466 3.189,-1.08 1.364,-0.33 2.946,-0.773 3.518,-0.985 1.5,-0.558 3.398,-1.661 4.435,-2.58 1.741,-1.541 2.479,-2.42 3.915,-4.674 1.3,-2.035 2.547,-4.481 4.43,-8.683 1.307,-2.916 2.524,-4.929 3.996,-6.613 0.583,-0.662 1.039,-1.287 1.015,-1.387 C -6.184,9.268 -6.373,9.186 -6.582,9.186 -6.79,9.184 -7.03,9.151 -7.115,9.113 -7.413,8.976 -10.483,8.84 -11.534,8.915 c -1.366,0.1 -4.303,0.919 -6.485,1.809 -5.26,2.144 -7.661,2.828 -11.009,3.141 -3.096,0.288 -5.501,-0.049 -8.181,-1.143 -2.214,-0.904 -5.39,-2.596 -5.106,-2.722 0.185,-0.084 0.935,-0.008 4.205,0.421 3.631,0.48 4.476,0.466 6.923,-0.109 2.13,-0.502 3.352,-1.027 5.436,-2.339 1.398,-0.882 5.005,-3.793 6.4,-5.17 0.421,-0.414 0.785,-0.76 0.808,-0.763 0.022,-0.007 0.486,-0.436 1.032,-0.954 2.553,-2.428 4.635,-3.94 6.814,-4.95 0.535,-0.249 1.009,-0.509 1.052,-0.577 0.094,-0.146 -1.989,-1.396 -3.336,-2.004"
       style="fill:#f29400;fill-opacity:1;fill-rule:nonzero;stroke:none"
       id="path158"
       inkscape:connector-curvature="0" /></g><g
     id="g160"
     transform="matrix(0.41510034,0,0,0.41510034,-594.01588,592.53416)"><path
       d="m 0,0 c 4.929,2.3 15.526,-0.411 14.375,-7.804 -2.463,-16.02 -20.537,-32.531 -29.162,-29.08 -7.476,2.956 -10.597,20.864 -7.723,34.256 2.548,11.911 13.884,13.8 18.567,9.118 0,0 -3.862,-6.654 -5.833,-16.842 -2.3,-11.663 -3.615,-22.425 0.082,-23.165 4.765,-0.904 8.954,9.776 9.529,33.435 0,0 0.083,0.082 0.165,0.082"
       style="fill:#f29400;fill-opacity:1;fill-rule:nonzero;stroke:none"
       id="path162"
       inkscape:connector-curvature="0" /></g><g
     id="g164"
     transform="matrix(0.41510034,0,0,0.41510034,-580.10516,585.40693)"><path
       d="m 0,0 v 0.166 c -3.777,-1.48 -5.749,-3.45 -6.49,-6.244 -0.821,-3.532 -1.068,-6.49 0.823,-6.572 1.972,-0.246 4.025,4.271 5.585,12.65 C -0.082,0.083 0,0.083 0,0 m 12.075,-0.245 c -1.312,-7.312 -2.546,-14.295 -0.082,-14.788 2.63,-0.574 6.081,4.436 8.214,10.35 h 0.165 c 1.399,0.577 2.794,-0.574 1.727,-3.203 -3.122,-7.804 -8.709,-13.554 -15.197,-11.911 -3.945,1.068 -5.998,5.34 -6.654,11.254 -1.48,-5.011 -4.273,-10.433 -9.942,-10.844 -6.571,-0.41 -11.171,5.423 -10.186,10.68 1.151,5.915 6.244,8.38 12.322,9.693 1.397,0.411 4.601,0.987 7.888,1.972 0.082,1.479 0.247,3.039 0.491,4.601 0.575,3.778 -0.573,8.461 -3.943,8.626 -3.368,0.081 -5.421,-0.412 -6.325,-3.534 -0.903,-3.367 2.218,-6.243 7.229,-1.314 0,0 4.272,-5.586 -1.559,-7.803 -6.161,-2.301 -13.391,1.806 -11.338,8.872 1.396,4.847 7.312,10.843 18.072,8.542 7.394,-1.641 11.748,-7.31 9.118,-21.193"
       style="fill:#f29400;fill-opacity:1;fill-rule:nonzero;stroke:none"
       id="path166"
       inkscape:connector-curvature="0" /></g><g
     id="g168"
     transform="matrix(0.41510034,0,0,0.41510034,-562.8181,584.41824)"><path
       d="m 0,0 c -7.066,0.576 -4.931,10.351 -4.931,10.351 3.863,-2.218 5.752,0.576 6.244,2.958 0.494,2.136 -0.41,4.435 -2.873,4.682 -3.289,0.41 -5.588,-5.833 -7.722,-13.802 -2.137,-8.378 -1.974,-16.511 2.71,-17.498 6.079,-1.149 14.704,5.916 16.593,11.008 0,0 0,0.083 0.083,0.083 1.479,0.575 2.794,-0.574 1.806,-3.122 -2.79,-7.145 -13.635,-14.786 -23.575,-12.651 -6.161,1.315 -13.308,9.202 -11.172,20.866 2.218,12.076 14.128,19.881 22.755,17.663 C 5.34,19.223 9.857,15.116 8.873,8.298 8.132,2.875 4.849,-0.328 0,0"
       style="fill:#f29400;fill-opacity:1;fill-rule:nonzero;stroke:none"
       id="path170"
       inkscape:connector-curvature="0" /></g><g
     id="g172"
     transform="matrix(0.41510034,0,0,0.41510034,-551.02178,585.40693)"><path
       d="m 0,0 v 0.166 c -3.778,-1.48 -5.749,-3.45 -6.49,-6.244 -0.82,-3.532 -1.067,-6.49 0.823,-6.572 1.972,-0.246 4.025,4.271 5.585,12.65 C -0.082,0.083 0,0.083 0,0 m 12.077,-0.245 c -1.315,-7.312 -2.546,-14.295 -0.082,-14.788 2.627,-0.574 6.081,4.436 8.214,10.35 h 0.165 c 1.397,0.577 2.793,-0.574 1.726,-3.203 -3.122,-7.804 -8.708,-13.554 -15.199,-11.911 -3.942,1.068 -5.996,5.34 -6.654,11.254 -1.477,-5.011 -4.271,-10.433 -9.938,-10.844 -6.574,-0.41 -11.174,5.423 -10.187,10.68 1.149,5.915 6.243,8.38 12.321,9.693 1.396,0.411 4.602,0.987 7.886,1.972 0.082,1.479 0.247,3.039 0.494,4.601 0.574,3.778 -0.576,8.461 -3.943,8.626 -3.37,0.081 -5.424,-0.412 -6.325,-3.534 -0.906,-3.367 2.217,-6.243 7.226,-1.314 0,0 4.273,-5.586 -1.559,-7.803 -6.161,-2.301 -13.39,1.806 -11.336,8.872 1.397,4.847 7.311,10.843 18.073,8.542 7.392,-1.641 11.746,-7.31 9.118,-21.193"
       style="fill:#f29400;fill-opacity:1;fill-rule:nonzero;stroke:none"
       id="path174"
       inkscape:connector-curvature="0" /></g><g
     id="g176"
     transform="matrix(0.41510034,0,0,0.41510034,-541.16801,593.25045)"><path
       d="M 0,0 C 5.421,3.532 13.144,-1.808 13.225,-1.972 13.144,-2.055 11.499,-3.615 9.939,-12.979 15.771,-2.218 20.455,2.053 25.63,0.246 c 3.779,-1.314 5.669,-7.886 2.875,-19.387 -3.121,-13.144 -5.668,-20.702 -3.696,-21.44 1.807,-0.658 4.025,1.312 5.668,6.078 0,0 0.081,0.083 0.164,0.083 1.479,0.574 2.795,-0.576 1.806,-3.122 -3.038,-7.724 -8.707,-10.516 -13.387,-8.462 -4.602,1.972 -7.643,10.105 -3.616,25.22 2.545,9.776 3.861,13.144 2.216,13.802 -1.559,0.41 -3.943,-3.452 -8.954,-15.61 -2.298,-15.443 -7.145,-17.744 -13.142,-15.443 0,0 -0.248,1.067 -0.248,3.86 C -4.765,-15.199 -5.177,-3.451 0,0"
       style="fill:#f29400;fill-opacity:1;fill-rule:nonzero;stroke:none"
       id="path178"
       inkscape:connector-curvature="0" /></g><g
     id="g180"
     transform="matrix(0.41510034,0,0,0.41510034,-520.60837,578.55333)"><path
       d="m 0,0 c -4.19,-5.175 -7.723,-5.094 -8.789,-4.272 -3.862,3.122 -2.547,11.911 2.71,14.294 2.219,0.985 4.846,0.656 7.558,-0.329 2.054,3.779 4.026,7.886 5.832,11.912 C 5.834,21.112 4.354,20.7 2.957,20.537 H 2.3 C -1.314,20.207 -4.107,20.7 -6.161,21.769 -7.476,17.168 -9.53,12.157 -11.994,7.639 -13.225,5.176 -15.196,5.504 -15.69,7.064 v 0.082 c 2.711,4.437 4.929,11.583 5.914,17.417 -3.285,4.106 -3.038,10.022 -1.479,12.075 0.165,0.328 0.577,0.328 0.577,0.328 0,0 5.091,-3.121 15.525,-2.956 2.959,0 5.998,0 8.625,0.164 4.601,6.408 12.157,7.064 10.679,1.395 C 23.329,32.448 19.221,28.095 13.965,24.89 11.666,20.045 8.461,13.637 5.34,8.132 9.365,6.16 13.226,3.614 15.772,3.532 c 2.959,-0.165 6.079,3.121 8.133,8.954 h 0.164 c 1.478,0.576 2.795,-0.575 1.725,-3.121 C 22.346,0.738 16.02,-7.887 9.282,-6.244 5.915,-5.34 2.627,-2.547 0,0"
       style="fill:#f29400;fill-opacity:1;fill-rule:nonzero;stroke:none"
       id="path182"
       inkscape:connector-curvature="0" /></g><g
     id="g184"
     transform="matrix(0.41510034,0,0,0.41510034,-505.26506,583.0201)"><path
       d="M 0,0 C 6.981,3.122 10.351,19.469 6.981,20.374 3.696,21.359 0.165,13.062 -1.316,7.394 -3.123,0.576 -4.024,-8.707 2.466,-10.022 c 6.897,-1.396 15.112,4.189 17.577,11.008 0,0 0,0.081 0.082,0.081 1.56,0.494 2.796,-0.574 1.807,-3.203 -3.367,-8.543 -13.799,-14.95 -24.479,-12.651 -6.244,1.397 -14.458,9.283 -12.322,20.949 2.218,11.665 12.158,19.551 22.838,17.662 C 23.985,20.867 22.18,4.354 -0.164,-3.122 -0.246,-3.122 -3.205,-1.396 0,0"
       style="fill:#f29400;fill-opacity:1;fill-rule:nonzero;stroke:none"
       id="path186"
       inkscape:connector-curvature="0" /></g><text
     transform="scale(1,-1)"
     id="text660"
     y="-575.42627"
     x="-489.54916"
     style="font-style:normal;font-variant:normal;font-weight:normal;font-stretch:normal;font-size:13.6522px;line-height:0px;font-family:sans-serif;-inkscape-font-specification:sans-serif;font-variant-ligatures:normal;font-variant-caps:normal;font-variant-numeric:normal;font-feature-settings:normal;text-align:center;letter-spacing:0px;word-spacing:0px;writing-mode:lr-tb;text-anchor:middle;fill:#0c3183;fill-opacity:1;stroke:none;stroke-width:0.311325"
     xml:space="preserve"><tspan
       style="font-style:normal;font-variant:normal;font-weight:normal;font-stretch:normal;font-family:sans-serif;-inkscape-font-specification:sans-serif;fill:#0c3183;fill-opacity:1;stroke-width:0.311325"
       y="-575.42627"
       x="-489.54916"
       id="tspan658"
       sodipodi:role="line">®</tspan></text><g
     id="g432"
     transform="matrix(0.31528274,0,0,0.31528274,-725.20048,516.49716)"><g
       id="g212"
       transform="matrix(1.1094682,0,0,1.1094682,389.91436,187.91281)"><text
         xml:space="preserve"
         transform="matrix(0.94702049,0,0,-0.94702049,-278.92889,331.76594)"
         id="text384"
         style="white-space:pre;shape-inside:url(#rect386);display:inline;fill:#000000" /><text
         xml:space="preserve"
         transform="matrix(0.94702049,0,0,-0.94702049,-278.92889,331.76594)"
         id="text390"
         style="font-size:26.6667px;white-space:pre;shape-inside:url(#rect392);display:inline;fill:#000000"><tspan
           x="150.25977"
           y="380.33655"
           id="tspan606"><tspan
             style="font-weight:bold;font-stretch:condensed;font-family:Arial;-inkscape-font-specification:'Arial Bold Condensed';fill:#000080"
             id="tspan604">SERVIZI ALLE LOCAZIONI TURISTICHE</tspan></tspan></text></g></g></g>
</g></svg>
